<?xml version="1.0" encoding="utf-8"?>
<!-- Generator: Adobe Illustrator 24.3.0, SVG Export Plug-In . SVG Version: 6.00 Build 0)  -->
<svg version="1.1" id="Layer_1" xmlns="http://www.w3.org/2000/svg" xmlns:xlink="http://www.w3.org/1999/xlink" x="0px" y="0px"
	 viewBox="0 0 200 60" style="enable-background:new 0 0 200 60;" xml:space="preserve">
<style type="text/css">
	.st0{fill:url(#SVGID_1_);}
	.st1{fill:url(#SVGID_2_);}
	.st2{fill:url(#SVGID_3_);}
	.st3{fill:url(#SVGID_4_);}
	.st4{fill:url(#SVGID_5_);}
	.st5{fill:url(#SVGID_6_);}
	.st6{fill:#9E3A94;}
	.st7{fill:url(#SVGID_7_);}
	.st8{fill:url(#SVGID_8_);}
	.st9{fill:url(#SVGID_9_);}
	.st10{fill:url(#SVGID_10_);}
	.st11{fill:url(#SVGID_11_);}
	.st12{fill:url(#SVGID_12_);}
</style>
<g>
	<g>
		
			<linearGradient id="SVGID_1_" gradientUnits="userSpaceOnUse" x1="77.722" y1="56.6447" x2="77.722" y2="21.8866" gradientTransform="matrix(1 0 0 -1 0 62)">
			<stop  offset="0" style="stop-color:#601B5F"/>
			<stop  offset="1" style="stop-color:#DF0084"/>
		</linearGradient>
		<path class="st0" d="M66.7,36.5c2.7-6.3,7.1-18.4,8.3-21.8c0.4-1,0.7-2.1,0.9-3.2c0.5,0,1.2,0.1,2.1,0.1c0.9,0,1.6-0.1,2.1-0.1
			c0.2,0.8,0.5,1.8,0.8,2.8c1.4,3.8,6.2,17.7,8,22c1.6,3.8,1.9,4.1,5.5,4.6c0.1,0.5,0.1,1.1-0.2,1.6c-1.3,0-3.7-0.2-6.7-0.2
			c-3.3,0-5.7,0.2-7.1,0.2c-0.2-0.3-0.2-1.4,0-1.6c0.9-0.1,1.7-0.3,2.6-0.6c0.5-0.1,0.7-0.6,0.6-1.1c0,0,0-0.1,0-0.1
			c-0.5-2-1.9-5.8-2.7-7.9c-0.1-0.1-0.3-0.3-0.5-0.3c-0.8-0.1-2.5,0-4.3,0c-2.7,0-3.5,0-4.1,0c-0.2,0-0.4,0.3-0.5,0.5
			c-1,2.6-2.3,6.2-2.3,7.3c0,0.8,0.1,1.4,1.4,1.7c0.8,0.2,1.5,0.3,2.5,0.5c0.2,0.5,0.1,1.1-0.1,1.6c-1.2,0-3.5-0.2-6.4-0.2
			c-2.4,0-4.2,0.2-5.5,0.2c-0.2-0.5-0.2-1.1,0-1.6C64.6,40.4,65.2,40,66.7,36.5z M76.2,17.7c-1,2.7-2.6,7.7-3.5,10.2
			c0,0.2,0,0.3,0.2,0.4c0.5,0.1,1.9,0.1,3.5,0.1s2.9,0,3.4-0.1c0.1,0,0.2-0.2,0.2-0.4c-0.8-2.4-2.6-7.8-3.5-10.2
			C76.3,17.7,76.2,17.7,76.2,17.7L76.2,17.7z"/>
		
			<linearGradient id="SVGID_2_" gradientUnits="userSpaceOnUse" x1="104.625" y1="56.6447" x2="104.625" y2="21.8866" gradientTransform="matrix(1 0 0 -1 0 62)">
			<stop  offset="0" style="stop-color:#601B5F"/>
			<stop  offset="1" style="stop-color:#DF0084"/>
		</linearGradient>
		<path class="st1" d="M105.2,26.4c-0.8-1.2-2.2-1.8-3.6-1.8c-0.8-0.1-1.6,0.1-2.2,0.6c-0.8,1-1.5,2.1-1.9,3.3
			c-0.2,0.2-1.7-0.6-1.7-0.9c0.2-1.1,0.6-2.2,1.1-3.2c2.3-1.6,5.8-2.9,7.2-2.9c2.2,0,4.2,1,5.5,2.8c0.9,1.5,1.3,3.3,1.2,5
			c0,2.5-0.1,6.1-0.1,8.2c0,0.9,0.3,2,1.6,2c0.6,0,1.2-0.1,1.7-0.3c0,0.6-0.1,1.2-0.3,1.8c-1.3,1.2-3,1.8-4.8,1.9
			c-1.2,0.1-2.3-0.4-2.8-1.5c-0.2-0.3-0.3-0.7-0.4-1c0-0.1-0.1-0.1-0.2,0c-2.5,1.6-4.7,2.5-5.8,2.5c-1.1,0-2.1-0.5-2.9-1.3
			c-1.2-1.3-1.9-3-1.8-4.8c0.1-1,0.4-2,0.9-2.9c1.5-0.9,7.7-2.3,9.5-3.2c0.2-0.1,0.3-0.4,0.4-0.5c0-0.4,0-0.7,0-1
			C106,28.2,105.8,27.3,105.2,26.4z M105.7,32.4c-1.8,0.5-3.5,1.2-5.2,2c-0.3,0.5-0.5,1.1-0.5,1.7c-0.1,1.8,1.3,3.4,3.2,3.5
			c0.1,0,0.2,0,0.2,0c0.7,0,1.4-0.2,2-0.6c0.3-0.3,0.4-0.7,0.5-1.1c0.1-1.3,0.1-4.5,0.1-5.4C106,32.6,105.8,32.4,105.7,32.4z"/>
		
			<linearGradient id="SVGID_3_" gradientUnits="userSpaceOnUse" x1="122.4413" y1="56.6447" x2="122.4413" y2="21.8866" gradientTransform="matrix(1 0 0 -1 0 62)">
			<stop  offset="0" style="stop-color:#601B5F"/>
			<stop  offset="1" style="stop-color:#DF0084"/>
		</linearGradient>
		<path class="st2" d="M123.7,25c-0.1,0-0.2,0.2-0.2,0.2c-0.1,2.2-0.1,6.2-0.1,8.6c0,1.3,0.1,2.5,0.3,3.7c0.4,1.2,1.5,2,2.8,1.9
			c1,0.1,2.1-0.2,2.9-0.7c0.1,0.5,0.1,1.1-0.1,1.6c-1.4,1.6-3.4,2.5-5.5,2.4c-2.2,0-3.9-0.8-4.8-2.4c-0.7-1.3-0.7-2.6-0.7-5.7
			c0-2.7,0.1-7.3,0.1-9.3c0-0.2-0.1-0.4-0.3-0.4c-0.9-0.1-1.7-0.2-2.6-0.2c0.1-0.6,0.2-1.3,0.5-1.8c0.7-0.2,1.8-0.4,2.2-0.6
			c0.1,0,0.2-0.2,0.3-0.3v-4.4c1.6-0.6,3-1.5,4.3-2.5c0.3,0,0.7,0,1,0c-0.2,2.2-0.3,4.5-0.3,6.8c0,0.1,0.1,0.3,0.3,0.3
			c1.7,0,4.8-0.1,5.8-0.2c-0.1,0.8-0.4,2.2-0.4,3C127.7,25,125.4,25,123.7,25z"/>
		
			<linearGradient id="SVGID_4_" gradientUnits="userSpaceOnUse" x1="142.7789" y1="56.6447" x2="142.7789" y2="21.8866" gradientTransform="matrix(1 0 0 -1 0 62)">
			<stop  offset="0" style="stop-color:#601B5F"/>
			<stop  offset="1" style="stop-color:#DF0084"/>
		</linearGradient>
		<path class="st3" d="M130.5,10.1c3-0.2,5.9-0.7,8.6-1.7c0.3,0.2,0.4,0.5,0.4,0.9c-0.4,0.8-0.6,1.3-0.6,4.7c0,1.7,0,9.1,0,10.3
			c0,0.1,0.1,0.2,0.2,0.1c2.4-1.8,4.7-2.8,6.7-2.8c4.1,0,6.4,3,6.4,8.2c0,2.7-0.1,7.3,0,9.4c0,0.4,0.2,0.8,0.5,1.1
			c0.8,0.4,1.6,0.6,2.5,0.7c0.1,0.2,0,1.4-0.3,1.6c-0.8,0-2.7-0.2-5.5-0.2c-2,0-4.1,0.1-5.1,0.2c-0.2-0.5-0.2-1.1,0-1.6
			c0.6-0.1,1.2-0.2,1.8-0.4c0.8-0.2,0.9-0.6,1-2.4c0-2.8,0.2-8-0.2-10c-0.4-2-2.2-3.5-4.3-3.3c-1.1,0-2.2,0.4-3.2,1
			c-0.3,0.2-0.5,0.6-0.5,1c0,3.7,0,9.9,0.1,11.4c0.1,1.5,0.2,2,1.2,2.4c0.6,0.1,0.9,0.2,1.8,0.4c0.3,0.2,0.1,1.3-0.1,1.6
			c-1,0-2.6-0.2-5.6-0.2c-2.8,0-4.3,0.2-5.3,0.2c-0.2-0.5-0.2-1.1,0-1.6c0.9-0.1,1.3-0.3,1.8-0.4c0.8-0.3,0.9-0.9,1-2.5
			c0.1-1.5,0.1-6.3,0.1-8.4c0-11.3,0-14.7-0.2-16.3c-0.1-0.6-0.2-1.1-0.9-1.3c-0.8-0.2-1.5-0.3-2.3-0.4
			C130.2,11.4,130.3,10.3,130.5,10.1z"/>
		
			<linearGradient id="SVGID_5_" gradientUnits="userSpaceOnUse" x1="168.6322" y1="56.6447" x2="168.6322" y2="21.8866" gradientTransform="matrix(1 0 0 -1 0 62)">
			<stop  offset="0" style="stop-color:#601B5F"/>
			<stop  offset="1" style="stop-color:#DF0084"/>
		</linearGradient>
		<path class="st4" d="M157.2,22.1c1.3,0,3.4,0.1,5.5,0.1c2.4,0,4.1-0.1,5.2-0.1c0.2,0.5,0.2,1.1,0,1.5l-1.9,0.5
			c-0.3,0.1-0.3,0.5-0.3,0.7c0.6,2,3.5,9.6,4.2,11.3c0,0.1,0.2,0,0.2,0c1-2.4,3-7.5,3.7-9.8c0.4-1.5,0.1-1.9-0.5-2.1
			c-0.7-0.3-1.5-0.5-2.2-0.5c-0.2-0.5-0.1-1.1,0.2-1.5c0.7,0,2.6,0.1,4.5,0.1c1.7,0,3.5-0.1,4.3-0.1c0.3,0.1,0.2,1.3,0,1.5
			c-0.6,0.1-1.2,0.2-1.8,0.4c-0.8,0.3-1.4,1-2,2.3c-1.3,2.9-3.1,7-4.8,11.3c-0.8,2.2-1.3,3.5-1.7,4.7c-1-0.1-2,0-2.9,0.1
			c-0.4-1.4-1-2.8-1.5-4.4c-1.3-3.5-2.9-7.6-3.9-10c-1.3-3.3-1.6-3.6-2.7-4c-0.6-0.2-1.2-0.4-1.8-0.4
			C156.9,23.2,156.9,22.6,157.2,22.1z"/>
		
			<linearGradient id="SVGID_6_" gradientUnits="userSpaceOnUse" x1="187.3493" y1="56.6447" x2="187.3493" y2="21.8866" gradientTransform="matrix(1 0 0 -1 0 62)">
			<stop  offset="0" style="stop-color:#601B5F"/>
			<stop  offset="1" style="stop-color:#DF0084"/>
		</linearGradient>
		<path class="st5" d="M192.8,42.5c-1,0-2.7-0.2-5.6-0.2c-2.5,0-4.4,0.2-5.4,0.2c-0.2-0.5-0.2-1.1,0-1.6c0.7-0.1,1.3-0.2,2-0.5
			c0.7-0.2,0.9-0.7,0.9-1.9c0.1-1.2,0-4.5,0-7c0-1.9,0-3.8,0-4.7c0-0.4-0.1-0.8-0.4-1.2c-0.6-0.6-1.4-1-2.2-1.2
			c-0.1-0.5-0.1-0.9,0.2-1.3c2.6-0.2,5.2-0.8,7.7-1.6c0,2.2-0.1,5.8-0.1,8.7c0,2.7,0,6.1,0.1,8.4c0,1.2,0.3,1.6,1,1.9
			c0.7,0.2,1.4,0.4,2.1,0.5C193.1,41.5,193,42,192.8,42.5z M188.7,17.4c-0.9,0.3-2,0.4-2.9,0.3c-0.8-0.5-1.4-1.3-1.5-2.2
			c-0.1-0.4-0.1-1.6,0.3-2c0.9-0.7,1.9-1,3-1c0.7-0.1,1.4,0.1,2,0.5c0.3,0.5,0.5,1.1,0.5,1.7C190,15.7,189.5,16.7,188.7,17.4z"/>
		<g>
			<path class="st6" d="M60.9,47.6c0.3,0,0.8,0,1.5,0c0.7,0,1.2,0,1.5,0c0,0.1,0,0.2,0,0.3c-0.2,0-0.3,0-0.5,0.1
				c-0.2,0.1-0.3,0.2-0.3,0.5c0,0.3,0,1.1,0,1.9c0,0,0,0.1,0.1,0.1h1.6c1,0,1.3,0,1.5,0c0,0,0.1,0,0.1-0.1c0-0.5,0-1.6,0-2.1
				c0-0.2-0.1-0.3-0.2-0.4C65.8,48,65.6,48,65.4,48c-0.1-0.1-0.1-0.2,0-0.3c0.3,0,0.8,0,1.5,0c0.7,0,1.2,0,1.4,0c0,0.1,0,0.2,0,0.3
				c-0.2,0-0.4,0-0.5,0.1c-0.2,0.1-0.3,0.2-0.3,0.5c0,0.5,0,1.1,0,2.4c0,0.8,0,1.9,0,2.3s0.1,0.4,0.3,0.5c0.2,0.1,0.5,0.1,0.7,0.1
				c0,0,0,0.3,0,0.3c-0.3,0-0.9,0-1.5,0c-0.7,0-1.2,0-1.5,0c0-0.1,0-0.2,0-0.3c0.2,0,0.4-0.1,0.6-0.1c0.2-0.1,0.3-0.2,0.3-0.5
				s0-1.4,0-2.1c0,0,0-0.1-0.1-0.1h-1.6c-1,0-1.6,0-1.6,0s0,0,0,0.1c0,0.6,0,1.7,0,2c0,0.3,0,0.5,0.3,0.6c0.2,0.1,0.4,0.1,0.6,0.1
				c0,0.1,0,0.2,0,0.3c-0.2,0-0.7,0-1.5,0c-0.8,0-1.3,0-1.5,0c0-0.1,0-0.2,0-0.3c0.2,0,0.4-0.1,0.5-0.1c0.3-0.1,0.4-0.3,0.4-0.7
				c0-0.3,0-1.2,0-2.2s0-2.1,0-2.4s-0.1-0.4-0.3-0.5c-0.2,0-0.4-0.1-0.6-0.1C60.9,47.9,60.8,47.7,60.9,47.6z"/>
			<path class="st6" d="M85.3,52c0,0.8-0.3,1.5-1,2c-0.4,0.3-0.9,0.4-1.4,0.4c-1.2,0.1-2.2-0.8-2.3-2c0-0.1,0-0.2,0-0.3
				c0-0.7,0.4-1.4,1-1.8c0.4-0.3,0.9-0.4,1.5-0.4c1.1-0.1,2.1,0.8,2.2,2C85.3,51.8,85.3,51.9,85.3,52z M82.4,50.3
				c-0.3,0.2-0.5,0.6-0.5,1.4c0,1.4,0.5,2.2,1.3,2.2c0.2,0,0.4-0.1,0.5-0.2c0.3-0.4,0.4-1,0.3-1.5c0-1.3-0.5-2.1-1.3-2.1
				C82.7,50.2,82.5,50.3,82.4,50.3z"/>
			<path class="st6" d="M100.6,51.1c-0.1,0-0.2,0-0.3,0c0-0.3-0.2-0.7-0.4-0.9c-0.2-0.1-0.3-0.1-0.5-0.1c-0.3,0-0.6,0.2-0.6,0.5
				c0,0,0,0,0,0c0,0.4,0.2,0.5,1,1s1.1,0.8,1.1,1.3c0,0.9-0.8,1.4-1.8,1.4c-0.4,0-0.8-0.1-1.2-0.2c-0.1-0.4-0.1-0.8-0.2-1.3
				c0,0,0.3-0.1,0.3-0.1c0.1,0.4,0.3,0.8,0.7,1c0.2,0.1,0.4,0.1,0.6,0.1c0.4,0,0.7-0.2,0.7-0.5s-0.2-0.5-0.8-0.8
				c-1-0.5-1.3-0.9-1.3-1.5c0-0.6,0.6-1.4,1.7-1.4c0.2,0,0.5,0,0.7,0.1c0.2,0,0.3,0.1,0.5,0.1C100.6,50.3,100.6,50.7,100.6,51.1z"/>
			<path class="st6" d="M113,50.1c0.6-0.1,1.1-0.3,1.7-0.5c0,0,0.1,0.1,0.1,0.1c0,0.2,0,0.4,0,0.6c0,0,0,0,0.1,0
				c0.4-0.3,0.9-0.6,1.5-0.6c0.4,0,0.8,0.2,1.1,0.5c0.3,0.4,0.5,0.9,0.5,1.4c0,0.8-0.3,1.5-0.9,2c-0.5,0.4-1.2,0.7-1.9,0.7
				c-0.1,0-0.2,0-0.3,0h-0.1c0,0.5,0,1.2,0,1.5c0,0.3,0.1,0.4,0.3,0.4c0.2,0,0.4,0.1,0.6,0.1c0,0.1,0,0.2,0,0.4h-0.4
				c-0.8,0-1.6,0-2.4,0.1c0-0.1,0-0.2,0-0.4l0.5-0.1c0.2-0.1,0.2-0.2,0.2-0.5c0-0.3,0-1.2,0-2.6s0-1.8,0-2.3c0-0.2,0-0.3-0.2-0.4
				c-0.2-0.1-0.3-0.1-0.5-0.1C113,50.3,113,50.2,113,50.1z M114.8,50.7c-0.1,0-0.1,0.1-0.1,0.2c0,0.3,0,1.7,0,2.1
				c0,0.2,0.1,0.4,0.3,0.5c0.2,0.2,0.5,0.2,0.7,0.2c0.2,0,0.5-0.1,0.6-0.3c0.3-0.4,0.4-0.8,0.4-1.3c0-0.5-0.1-0.9-0.4-1.3
				c-0.2-0.3-0.5-0.4-0.9-0.4C115.3,50.5,115,50.6,114.8,50.7z"/>
			<path class="st6" d="M132.5,54.2c-0.2,0-0.6,0-1.2,0s-1,0-1.2,0c0-0.1,0-0.2,0-0.3c0.1,0,0.3-0.1,0.4-0.1c0.2,0,0.2-0.1,0.2-0.4
				c0-0.3,0-1,0-1.5c0-0.4,0-0.8,0-1c0-0.1,0-0.2-0.1-0.2c-0.1-0.1-0.3-0.2-0.5-0.3c0-0.1,0-0.2,0-0.3c0.6,0,1.1-0.2,1.7-0.4
				c0,0.5,0,1.2,0,1.9s0,1.3,0,1.8c0,0.3,0.1,0.4,0.2,0.4c0.1,0,0.3,0.1,0.5,0.1C132.5,54,132.5,54.1,132.5,54.2z M131.6,48.8
				c-0.2,0.1-0.4,0.1-0.6,0.1c-0.2-0.1-0.3-0.3-0.3-0.5c0-0.1,0-0.3,0-0.4c0.2-0.2,0.4-0.2,0.7-0.2c0.1,0,0.3,0,0.4,0.1
				c0.1,0.1,0.1,0.2,0.1,0.4C131.9,48.4,131.8,48.6,131.6,48.8z"/>
			<path class="st6" d="M146.2,50.4C146.2,50.4,146.2,50.4,146.2,50.4c0,0.5,0,1.4,0,1.9c0,0.3,0,0.5,0.1,0.8
				c0.1,0.3,0.3,0.4,0.6,0.4c0.2,0,0.4,0,0.6-0.2c0,0.1,0,0.2,0,0.4c-0.3,0.3-0.7,0.5-1.2,0.5c-0.4,0-0.8-0.2-1-0.5
				c-0.2-0.4-0.2-0.8-0.2-1.2c0-0.6,0-1.6,0-2c0,0,0-0.1-0.1-0.1c-0.2,0-0.4,0-0.6,0c0-0.1,0-0.3,0.1-0.4c0.1,0,0.4-0.1,0.5-0.1
				s0,0,0.1-0.1v-1c0.3-0.1,0.6-0.3,0.9-0.5c0.1,0,0.1,0,0.2,0c0,0.5,0,1,0,1.5c0,0,0,0.1,0,0.1c0.4,0,1,0,1.2,0
				c0,0.2-0.1,0.5-0.1,0.7L146.2,50.4z"/>
			<path class="st6" d="M161.7,50.7c-0.2-0.2-0.5-0.4-0.8-0.4c-0.2,0-0.3,0-0.5,0.1c-0.2,0.2-0.3,0.5-0.4,0.7c0,0-0.4-0.1-0.4-0.2
				c0-0.2,0.1-0.5,0.2-0.7c0.5-0.3,1-0.5,1.5-0.6c0.5,0,0.9,0.2,1.2,0.6c0.2,0.3,0.3,0.7,0.3,1.1c0,0.5,0,1.3,0,1.8
				c0,0.2,0.1,0.4,0.4,0.4c0.1,0,0.3,0,0.4-0.1c0,0.1,0,0.3-0.1,0.4c-0.3,0.2-0.6,0.4-1,0.4c-0.2,0-0.5-0.1-0.6-0.3
				c0-0.1,0-0.2-0.1-0.2c-0.1-0.1,0,0,0,0c-0.4,0.3-0.8,0.5-1.2,0.5c-0.2,0-0.5-0.1-0.6-0.3c-0.3-0.3-0.4-0.6-0.4-1
				c0-0.2,0.1-0.4,0.2-0.6c0.3-0.2,1.6-0.5,2-0.7c0,0,0.1-0.1,0.1-0.1c0-0.1,0-0.2,0-0.2C162,51.1,161.9,50.8,161.7,50.7z M161.8,52
				c-0.4,0.1-0.8,0.3-1.1,0.4c-0.1,0.1-0.1,0.2-0.1,0.4c0,0.4,0.3,0.7,0.7,0.8c0,0,0.1,0,0.1,0c0.1,0,0.3,0,0.4-0.1
				c0.1-0.1,0.1-0.1,0.1-0.2C161.9,52.9,161.9,52.2,161.8,52C161.8,52,161.8,52,161.8,52L161.8,52z"/>
			<path class="st6" d="M175.5,53.8c0.2,0,0.3,0,0.4-0.1c0.1-0.1,0.2-0.2,0.2-0.4c0-0.2,0-1.4,0-2.7c0-1.1,0-2.2,0-2.6
				c0-0.1,0-0.3-0.1-0.3c-0.2-0.1-0.3-0.1-0.5-0.1c0-0.1,0-0.2,0-0.3c0.6-0.1,1.2-0.2,1.8-0.4c0,0,0.1,0.1,0.1,0.1
				c-0.1,0.3-0.1,0.6-0.1,1c0,0.5,0,1.7,0,2.7c0,1.5,0,2.3,0,2.7c0,0.4,0,0.4,0.3,0.5c0.1,0,0.3,0.1,0.4,0.1c0,0.1,0,0.2,0,0.3
				c-0.2,0-0.6,0-1.2,0c-0.5,0-1,0-1.1,0C175.4,54,175.4,53.9,175.5,53.8z"/>
			<path class="st6" d="M192.9,50.9c-0.1,0-0.2,0-0.3,0c-0.1-0.5-0.2-0.7-0.4-0.9c-0.2-0.1-0.3-0.1-0.5-0.1c-0.3,0-0.6,0.2-0.6,0.5
				c0,0,0,0,0,0.1c0,0.4,0.2,0.5,1,1c0.9,0.4,1.1,0.8,1.1,1.3c0,0.9-0.8,1.4-1.8,1.4c-0.4,0-0.9-0.1-1.3-0.2
				c-0.1-0.4-0.1-0.8-0.2-1.3c0.1-0.1,0.2-0.1,0.3-0.1c0.1,0.4,0.3,0.8,0.7,1c0.2,0.1,0.4,0.1,0.6,0.1c0.4,0,0.7-0.2,0.7-0.5
				s-0.2-0.5-0.8-0.8c-1-0.5-1.3-0.9-1.3-1.5c0-0.6,0.6-1.4,1.7-1.4c0.2,0,0.5,0,0.7,0.1l0.5,0.1C193,50.1,192.9,50.5,192.9,50.9z"
				/>
		</g>
	</g>
	<g>
		
			<linearGradient id="SVGID_7_" gradientUnits="userSpaceOnUse" x1="16.501" y1="29.0433" x2="53.2102" y2="29.0433" gradientTransform="matrix(1 0 0 -1 0 62)">
			<stop  offset="0" style="stop-color:#601B5F"/>
			<stop  offset="1" style="stop-color:#DF0084"/>
		</linearGradient>
		<path class="st7" d="M46.7,48.7c-2.9,0-5.7-0.5-8.4-1.5c-2.9-1.2-5.6-2.9-7.9-4.9c-2.5-2.1-4.7-4.6-6.5-7.3
			c-0.9-1.3-1.7-2.7-2.4-4.1c-0.7-1.4-1.2-2.8-1.7-4.3l-3.2-9.4l11.4,0.5c4.1,0.2,8.2,1.2,11.8,3.1c1.9,1,3.7,2.2,5.4,3.7
			c3.3,3,5.7,6.8,7,11c0.6,1.9,0.9,3.9,1.1,6c0,0.5,0.1,1,0.1,1.4v0.7V44c0,0.1,0,0.3,0,0.4c0,1.1-0.6,2.1-1.5,2.7
			c-0.8,0.5-1.6,0.9-2.5,1.1C48.4,48.4,47.5,48.6,46.7,48.7z"/>
		
			<linearGradient id="SVGID_8_" gradientUnits="userSpaceOnUse" x1="-4.8893" y1="88.6931" x2="22.4088" y2="70.5989" gradientTransform="matrix(1 0 0 -1 29.8 116.62)">
			<stop  offset="0" style="stop-color:#F48220"/>
			<stop  offset="1" style="stop-color:#FAD40E"/>
		</linearGradient>
		<path class="st8" d="M46.7,48.7C32.2,48.8,28,30.3,26.9,25c21.9,3.2,24.8,15.4,25.6,19.2c0.2,0.9-0.1,1.8-0.7,2.4
			C51,47.4,49.5,48.3,46.7,48.7z"/>
		
			<linearGradient id="SVGID_9_" gradientUnits="userSpaceOnUse" x1="26.0293" y1="24.5266" x2="69.1995" y2="24.5266" gradientTransform="matrix(-1.773896e-02 0.9998 0.9998 1.773896e-02 23.8851 -23.304)">
			<stop  offset="0" style="stop-color:#F48220"/>
			<stop  offset="1" style="stop-color:#FAD40E"/>
		</linearGradient>
		<path class="st9" d="M52.8,23.6c1.1,1.6,3.3,4.8,5.1,8.6c0.2-1.2,0.3-2.4,0.4-3.7c0.1-3-0.2-6.1-0.9-9.1c-0.3-1.5-0.8-2.9-1.3-4.3
			c-0.5-1.3-1.2-2.6-1.8-3.9l-4.5-8.1l-6.9,8.2c-2.5,2.9-4.3,6.4-5.4,10.1c-0.5,2-0.8,4-0.8,6c0,4.1,1.1,8.2,3.2,11.7
			c1,1.6,2.1,3.1,3.4,4.5c0.3,0.3,0.6,0.7,0.9,1l0.5,0.4l0.2,0.2c0.1,0.1,0.2,0.2,0.3,0.3c0.4,0.3,0.8,0.6,1.3,0.7
			C45.4,41.2,46,33.7,52.8,23.6z"/>
		
			<linearGradient id="SVGID_10_" gradientUnits="userSpaceOnUse" x1="6.9073" y1="44.8134" x2="50.0774" y2="44.8134" gradientTransform="matrix(1 7.197398e-03 -7.197398e-03 1 0.2113 -0.1166)">
			<stop  offset="0" style="stop-color:#F48220"/>
			<stop  offset="1" style="stop-color:#FAD40E"/>
		</linearGradient>
		<path class="st10" d="M50,44.5c-0.1-0.5-0.3-0.9-0.6-1.3c-0.1-0.1-0.2-0.2-0.3-0.3l-0.2-0.2l-0.4-0.5c-0.3-0.3-0.6-0.6-0.9-1
			c-1.3-1.3-2.8-2.5-4.4-3.5c-3.5-2.2-7.5-3.4-11.7-3.5c-2,0-4.1,0.2-6.1,0.7c-3.7,1-7.2,2.7-10.2,5.1l-8.4,6.7l8,4.7
			c1.2,0.7,2.5,1.4,3.8,1.9c1.4,0.6,2.8,1,4.2,1.4c3,0.8,6,1.1,9,1.1c1.2,0,2.5-0.1,3.7-0.3c-3.8-1.8-6.9-4.1-8.5-5.3
			C37.4,43.5,44.9,43.2,50,44.5z"/>
		
			<linearGradient id="SVGID_11_" gradientUnits="userSpaceOnUse" x1="27.752" y1="24.8982" x2="69.5021" y2="24.8982" gradientTransform="matrix(-1.773896e-02 0.9998 0.9998 1.773896e-02 23.8851 -23.304)">
			<stop  offset="0" style="stop-color:#601B5F"/>
			<stop  offset="1" style="stop-color:#DF0084"/>
		</linearGradient>
		<path class="st11" d="M53,24.7c1.1,1.6,3.2,4.6,4.9,8.3c0.2-1.2,0.3-2.4,0.4-3.6c0.1-2.9-0.2-5.9-0.8-8.8
			c-0.3-1.4-0.8-2.8-1.3-4.1c-0.5-1.3-1.1-2.5-1.8-3.8l-4.3-7.9l-6.6,7.9c-2.4,2.8-4.2,6.2-5.2,9.8c-0.5,1.9-0.8,3.9-0.8,5.8
			c0,4,1,7.9,3.1,11.4c0.9,1.6,2.1,3,3.3,4.4c0.3,0.3,0.6,0.6,0.9,0.9l0.5,0.4l0.2,0.2c0.1,0.1,0.2,0.2,0.3,0.3
			c0.4,0.3,0.8,0.5,1.3,0.7C45.8,41.7,46.4,34.4,53,24.7z"/>
		
			<linearGradient id="SVGID_12_" gradientUnits="userSpaceOnUse" x1="8.6044" y1="45.1622" x2="50.3545" y2="45.1622" gradientTransform="matrix(1 7.197398e-03 -7.197398e-03 1 0.2113 -0.1166)">
			<stop  offset="0" style="stop-color:#601B5F"/>
			<stop  offset="1" style="stop-color:#DF0084"/>
		</linearGradient>
		<path class="st12" d="M50.2,44.8c-0.1-0.5-0.3-0.9-0.6-1.3c-0.1-0.1-0.2-0.2-0.2-0.3L49.2,43l-0.4-0.5c-0.3-0.3-0.6-0.6-0.9-0.9
			c-1.3-1.3-2.7-2.4-4.3-3.4c-3.4-2.1-7.3-3.3-11.3-3.4c-2,0-3.9,0.2-5.9,0.7c-3.6,0.9-7,2.6-9.9,4.9l-8.1,6.4l7.8,4.5
			c1.2,0.7,2.4,1.3,3.7,1.9c1.3,0.5,2.7,1,4.1,1.4c2.9,0.7,5.8,1.1,8.7,1.1c1.2,0,2.4-0.1,3.6-0.3c-3.7-1.8-6.7-4-8.2-5.1
			C38.1,43.9,45.4,43.6,50.2,44.8z"/>
	</g>
</g>
</svg>
