<svg id="Layer_1" data-name="Layer 1" xmlns="http://www.w3.org/2000/svg" xmlns:xlink="http://www.w3.org/1999/xlink" viewBox="0 0 200 60"><defs><style>.cls-1{fill:#fff;}.cls-2{fill:url(#linear-gradient);}.cls-3{fill:url(#linear-gradient-2);}.cls-4{fill:url(#linear-gradient-3);}</style><linearGradient id="linear-gradient" x1="23.58" y1="37.15" x2="50.38" y2="37.15" gradientUnits="userSpaceOnUse"><stop offset="0" stop-color="#ccc"/><stop offset="1" stop-color="#e6e6e6"/></linearGradient><linearGradient id="linear-gradient-2" x1="25.88" y1="21.16" x2="70.99" y2="21.16" gradientTransform="matrix(-0.02, 1, 1, 0.02, 24.9, -24.3)" xlink:href="#linear-gradient"/><linearGradient id="linear-gradient-3" x1="2.72" y1="45.51" x2="47.83" y2="45.51" gradientTransform="translate(0.21 -0.12) rotate(0.41)" xlink:href="#linear-gradient"/></defs><path class="cls-1" d="M65.24,36.8c2.82-6.6,7.46-19.24,8.7-22.82a19.21,19.21,0,0,0,1-3.33c.47,0,1.27.1,2.22.1s1.69-.06,2.18-.1c.2.83.51,1.93.82,2.89,1.44,3.94,6.49,18.51,8.35,23,1.65,4,2,4.26,5.8,4.85a2.54,2.54,0,0,1-.19,1.67c-1.34,0-3.88-.18-7-.18-3.44,0-5.91.18-7.42.18-.17-.28-.24-1.48,0-1.65a17.68,17.68,0,0,0,2.68-.63.9.9,0,0,0,.58-1.15l0-.08c-.52-2-2-6.08-2.82-8.24-.07-.11-.3-.34-.48-.34-.79-.07-2.64,0-4.54,0H70.72c-.21,0-.44.27-.54.51-1,2.72-2.44,6.53-2.44,7.59,0,.83.06,1.48,1.5,1.83.83.17,1.62.33,2.59.48a2.14,2.14,0,0,1-.15,1.68c-1.27,0-3.63-.18-6.7-.18-2.47,0-4.39.18-5.74.18a2.59,2.59,0,0,1,0-1.65C63,40.88,63.68,40.47,65.24,36.8Zm9.87-19.62c-1,2.78-2.72,8-3.65,10.65,0,.24,0,.34.17.37.55.07,2,.07,3.64.07s3,0,3.54-.07c.11,0,.21-.2.21-.37-.86-2.48-2.72-8.11-3.65-10.65a.58.58,0,0,0-.32,0Z"/><path class="cls-1" d="M105.45,26.24a4.52,4.52,0,0,0-3.78-1.85,3.31,3.31,0,0,0-2.33.66,12.23,12.23,0,0,0-2,3.47c-.22.2-1.82-.58-1.75-.93a10.22,10.22,0,0,1,1.2-3.3c2.43-1.71,6-3.08,7.55-3.08a6.78,6.78,0,0,1,5.7,3,9.66,9.66,0,0,1,1.3,5.27c0,2.61-.14,6.43-.14,8.56,0,1,.34,2,1.71,2a5.79,5.79,0,0,0,1.8-.28,5,5,0,0,1-.28,1.85,7.83,7.83,0,0,1-5,2A2.91,2.91,0,0,1,106.52,42a6.12,6.12,0,0,1-.38-1.09c0-.1-.14-.1-.2,0-2.59,1.69-5,2.65-6.09,2.65a4.21,4.21,0,0,1-3-1.31,6.85,6.85,0,0,1-1.92-5,7.7,7.7,0,0,1,1-3.07c1.59-1,8-2.41,10-3.37.17-.07.31-.37.38-.52V29.22A5.08,5.08,0,0,0,105.45,26.24Zm.55,6.3a36.1,36.1,0,0,0-5.42,2,4.34,4.34,0,0,0-.53,1.76A3.5,3.5,0,0,0,103.38,40h.25a3.62,3.62,0,0,0,2.05-.58,1.54,1.54,0,0,0,.47-1.11c.11-1.37.11-4.67.11-5.59C106.22,32.71,106.1,32.54,106,32.54Z"/><path class="cls-1" d="M124.73,24.8c-.11,0-.25.21-.25.25-.07,2.26-.07,6.49-.07,9a17.74,17.74,0,0,0,.32,3.92,2.76,2.76,0,0,0,2.92,2,5,5,0,0,0,3.07-.75,3.71,3.71,0,0,1-.1,1.72,7.18,7.18,0,0,1-5.74,2.54c-2.26,0-4.1-.79-5-2.47-.76-1.38-.76-2.76-.76-6,0-2.78.06-7.6.06-9.76a.43.43,0,0,0-.3-.45,23,23,0,0,0-2.75-.23,7.48,7.48,0,0,1,.48-1.93c.72-.21,1.89-.44,2.31-.62.1,0,.2-.2.26-.34V17.15a19.72,19.72,0,0,0,4.54-2.62,4.44,4.44,0,0,1,1,0,55.65,55.65,0,0,0-.28,7.07c0,.15.14.35.28.35,1.82,0,5-.14,6-.24-.13.83-.41,2.3-.45,3.16C128.92,24.8,126.58,24.8,124.73,24.8Z"/><path class="cls-1" d="M131.84,9.26a31.67,31.67,0,0,0,9-1.83,1,1,0,0,1,.41.89c-.45.79-.58,1.35-.65,4.95V24.06c0,.1.1.21.24.1,2.47-1.85,4.91-3,7-3,4.26,0,6.7,3.17,6.7,8.56,0,2.86-.07,7.59,0,9.79a1.35,1.35,0,0,0,.56,1.13,8.23,8.23,0,0,0,2.57.73,2.39,2.39,0,0,1-.27,1.65c-.83,0-2.79-.18-5.71-.18-2,0-4.26.11-5.32.18a2.24,2.24,0,0,1,0-1.65,9.93,9.93,0,0,0,1.86-.39c.8-.22.93-.63,1-2.48,0-2.92.2-8.35-.21-10.44a4.27,4.27,0,0,0-4.51-3.47,6.38,6.38,0,0,0-3.33,1,1.43,1.43,0,0,0-.55,1c0,3.92,0,10.34.1,11.93s.21,2.12,1.24,2.47c.59.1.93.24,1.86.38.27.2.13,1.37-.08,1.65-1.09,0-2.71-.17-5.9-.17-3,0-4.46.17-5.53.17a2.06,2.06,0,0,1,0-1.65c.89-.14,1.37-.28,1.93-.41.82-.32,1-1,1-2.58s.1-6.56.1-8.76c0-11.79,0-15.32-.16-17.07-.1-.66-.25-1.17-1-1.38a15.17,15.17,0,0,0-2.41-.41A1.9,1.9,0,0,1,131.84,9.26Z"/><path class="cls-1" d="M159.73,21.78c1.34,0,3.53.14,5.77.14,2.47,0,4.32-.1,5.43-.14a2.26,2.26,0,0,1,0,1.62l-2,.48c-.34.1-.34.51-.31.68.66,2.05,3.71,10,4.4,11.79,0,.1.2,0,.2,0,1-2.54,3.17-7.87,3.92-10.25.45-1.55.1-2-.48-2.16a9.06,9.06,0,0,0-2.34-.55,2.12,2.12,0,0,1,.17-1.62c.73,0,2.75.14,4.75.14,1.78,0,3.63-.1,4.53-.14.27.14.17,1.38,0,1.62a7.66,7.66,0,0,0-1.89.45c-.86.3-1.41,1-2,2.39-1.37,3-3.23,7.32-5.05,11.86-.86,2.26-1.4,3.71-1.75,4.95a13.22,13.22,0,0,0-3.08.1c-.41-1.44-1-2.89-1.61-4.64-1.34-3.64-3.08-8-4.1-10.44-1.38-3.4-1.65-3.81-2.85-4.22a7.51,7.51,0,0,0-1.93-.44A2.74,2.74,0,0,1,159.73,21.78Z"/><path class="cls-1" d="M196.93,43.07c-1,0-2.86-.18-5.81-.18-2.57,0-4.6.18-5.63.18a2.46,2.46,0,0,1,0-1.65,12.19,12.19,0,0,0,2-.48c.74-.25.89-.73,1-2s0-4.67,0-7.36V26.69a1.81,1.81,0,0,0-.38-1.21,6.21,6.21,0,0,0-2.34-1.27A1.92,1.92,0,0,1,186,22.8a32.46,32.46,0,0,0,8-1.69c0,2.28-.07,6-.07,9.11,0,2.82,0,6.35.07,8.76,0,1.23.31,1.71,1,2a15.69,15.69,0,0,0,2.16.48A2.62,2.62,0,0,1,196.93,43.07Zm-4.23-26.2a6.41,6.41,0,0,1-3.07.28,3.14,3.14,0,0,1-1.55-2.34,3.08,3.08,0,0,1,.28-2.05,5.28,5.28,0,0,1,3.15-1.1,3.18,3.18,0,0,1,2.05.56,3.7,3.7,0,0,1,.51,1.75A3.83,3.83,0,0,1,192.7,16.87Z"/><path class="cls-1" d="M59.09,48.44h3.09a.45.45,0,0,1,0,.36,1.91,1.91,0,0,0-.53.1c-.22.06-.28.17-.28.53v2s0,.09.06.1h3.23a.11.11,0,0,0,.08-.08V49.3a.4.4,0,0,0-.23-.39,2.85,2.85,0,0,0-.66-.11.45.45,0,0,1,0-.36H66.9a.45.45,0,0,1,0,.36,2.3,2.3,0,0,0-.57.11c-.23.06-.28.17-.29.56v4.92c0,.43.07.46.27.54a6.26,6.26,0,0,0,.73.14v.36H63.88a.36.36,0,0,1,0-.35,4.12,4.12,0,0,0,.59-.12c.2-.06.29-.18.3-.53s0-1.46,0-2.2a.08.08,0,0,0-.07-.07H61.34c-.08,0,0,.05,0,.06v2.05c0,.32,0,.54.33.62a5.18,5.18,0,0,0,.66.14.5.5,0,0,1,0,.34H59.12a.43.43,0,0,1,0-.35,5.22,5.22,0,0,0,.57-.11c.32-.08.37-.26.4-.78V49.38a.49.49,0,0,0-.31-.53,4.5,4.5,0,0,0-.64-.11S59,48.47,59.09,48.44Z"/><path class="cls-1" d="M84.64,53a2.31,2.31,0,0,1-1,2.05,2.89,2.89,0,0,1-1.42.44,2.25,2.25,0,0,1-2.39-2.08c0-.12,0-.24,0-.36a2.2,2.2,0,0,1,1-1.92,2.91,2.91,0,0,1,1.54-.45,2.18,2.18,0,0,1,2.27,2.07A2.09,2.09,0,0,1,84.64,53Zm-3-1.71c-.3.21-.51.61-.5,1.48,0,1.45.57,2.29,1.34,2.29a.91.91,0,0,0,.55-.18,2.07,2.07,0,0,0,.34-1.55c0-1.33-.5-2.22-1.35-2.22A.89.89,0,0,0,81.63,51.27Z"/><path class="cls-1" d="M100.6,52a.58.58,0,0,1-.32,0,1.29,1.29,0,0,0-.45-.91,1,1,0,0,0-.52-.12.58.58,0,0,0-.64.51v0c0,.38.17.58,1.08,1s1.19.8,1.19,1.37c0,.9-.87,1.49-1.9,1.49a4.13,4.13,0,0,1-1.3-.22,12,12,0,0,1-.19-1.32s.3-.13.36-.1a1.7,1.7,0,0,0,.7,1.09,1.19,1.19,0,0,0,.58.15c.42,0,.69-.23.69-.55s-.19-.56-.83-.87c-1-.49-1.36-.91-1.36-1.55a1.6,1.6,0,0,1,1.78-1.42c.26,0,.51,0,.77.06a2.07,2.07,0,0,0,.5.06A10.79,10.79,0,0,0,100.6,52Z"/><path class="cls-1" d="M113.56,51.05a6.65,6.65,0,0,0,1.75-.57s.11.06.11.09c0,.22,0,.45,0,.68h.07a2.94,2.94,0,0,1,1.54-.67,1.5,1.5,0,0,1,1.15.52,2.27,2.27,0,0,1,.55,1.51,2.46,2.46,0,0,1-1,2,3.34,3.34,0,0,1-2,.71,1.93,1.93,0,0,1-.34,0h-.06V57c0,.35.1.39.35.44a5,5,0,0,0,.66.1.55.55,0,0,1,0,.36H116a18,18,0,0,0-2.54.15.5.5,0,0,1,0-.38l.52-.12c.2-.09.24-.24.26-.56s0-1.25,0-2.71V51.88c0-.21,0-.33-.18-.4a4.07,4.07,0,0,0-.5-.13A.52.52,0,0,1,113.56,51.05Zm1.94.59a.3.3,0,0,0-.13.22V54a.81.81,0,0,0,.27.58,1.14,1.14,0,0,0,.78.23.91.91,0,0,0,.66-.28,1.83,1.83,0,0,0,.42-1.37,2.22,2.22,0,0,0-.37-1.37,1.1,1.1,0,0,0-.91-.43A1.33,1.33,0,0,0,115.5,51.64Z"/><path class="cls-1" d="M134,55.27h-2.46a.53.53,0,0,1,0-.35,1.74,1.74,0,0,0,.45-.11c.16-.05.19-.15.21-.42s0-1,0-1.58v-1a.41.41,0,0,0-.09-.26,1.16,1.16,0,0,0-.5-.27.51.51,0,0,1,0-.3,7.31,7.31,0,0,0,1.73-.37v3.84c0,.27.07.37.22.42a2.46,2.46,0,0,0,.47.1A.58.58,0,0,1,134,55.27ZM133,49.64a1.35,1.35,0,0,1-.66.06.7.7,0,0,1-.33-.5.55.55,0,0,1,.05-.42,1.1,1.1,0,0,1,.69-.25.63.63,0,0,1,.42.12.76.76,0,0,1,.11.38A.78.78,0,0,1,133,49.64Z"/><path class="cls-1" d="M148.23,51.32v2a3.87,3.87,0,0,0,.06.84.62.62,0,0,0,.64.43,1.13,1.13,0,0,0,.65-.17.77.77,0,0,1,0,.37,1.58,1.58,0,0,1-1.24.55,1.14,1.14,0,0,1-1-.53,2.58,2.58,0,0,1-.16-1.29v-2a.1.1,0,0,0-.08-.1h-.58a1.45,1.45,0,0,1,.1-.41,1.29,1.29,0,0,0,.49-.14c.1,0,0,0,.07-.07v-1a4.66,4.66,0,0,0,1-.55.41.41,0,0,1,.22,0,12.68,12.68,0,0,0,0,1.51v.07h1.31c0,.19-.09.51-.1.69Z"/><path class="cls-1" d="M164.49,51.59a1,1,0,0,0-.81-.4.82.82,0,0,0-.5.15,2.93,2.93,0,0,0-.43.75s-.39-.13-.37-.2a2.08,2.08,0,0,1,.26-.72,3.79,3.79,0,0,1,1.62-.66,1.47,1.47,0,0,1,1.23.63,2.07,2.07,0,0,1,.27,1.14v1.84c0,.21.08.43.37.43a.86.86,0,0,0,.39-.06.91.91,0,0,1-.06.4,1.56,1.56,0,0,1-1,.42.6.6,0,0,1-.63-.33.28.28,0,0,0-.08-.23h0a3,3,0,0,1-1.3.57.91.91,0,0,1-.65-.27,1.49,1.49,0,0,1-.42-1,1.51,1.51,0,0,1,.21-.65c.33-.21,1.71-.53,2.14-.73a.41.41,0,0,0,.07-.11v-.24A1,1,0,0,0,164.49,51.59Zm.13,1.36a5.9,5.9,0,0,0-1.17.45,1.14,1.14,0,0,0-.11.37.74.74,0,0,0,.69.78.11.11,0,0,0,.08,0,.7.7,0,0,0,.43-.12.41.41,0,0,0,.11-.23V53s0,0,0,0Z"/><path class="cls-1" d="M178.9,54.82a2.36,2.36,0,0,0,.46-.1c.13-.06.17-.22.18-.45s0-1.51,0-2.83c0-1.12,0-2.32,0-2.77,0-.11,0-.27-.15-.3a2.59,2.59,0,0,0-.54-.11.32.32,0,0,1,0-.3,9,9,0,0,0,1.91-.44s.08.1.08.14a2.72,2.72,0,0,0-.11,1v5.6c0,.4,0,.4.27.47a2.07,2.07,0,0,0,.43.1.64.64,0,0,1,0,.36h-2.47A.58.58,0,0,1,178.9,54.82Z"/><path class="cls-1" d="M197.07,51.84a.58.58,0,0,1-.32,0c-.08-.48-.21-.76-.44-.9a1,1,0,0,0-.53-.14.59.59,0,0,0-.63.51v.06c0,.37.16.56,1.07,1s1.19.81,1.19,1.39c0,.9-.86,1.47-1.89,1.48a4.13,4.13,0,0,1-1.31-.21,12,12,0,0,1-.18-1.34.73.73,0,0,1,.35-.09,1.69,1.69,0,0,0,.71,1.09,1.19,1.19,0,0,0,.58.15c.42,0,.69-.22.69-.54s-.21-.57-.83-.88c-1-.48-1.36-.9-1.38-1.55a1.61,1.61,0,0,1,1.8-1.42,4,4,0,0,1,.77.07l.5.06A10.24,10.24,0,0,0,197.07,51.84Z"/><path class="cls-1" d="M44.27,49.55A22.74,22.74,0,0,1,35.49,48a30.78,30.78,0,0,1-8.3-5.13,38.32,38.32,0,0,1-6.8-7.58,35.18,35.18,0,0,1-2.51-4.32,38.2,38.2,0,0,1-1.81-4.46l-3.33-9.84,11.94.55a30,30,0,0,1,12.38,3.22,26.61,26.61,0,0,1,5.59,3.88,25.1,25.1,0,0,1,7.27,11.51A28.87,28.87,0,0,1,51,42c0,.5.07,1,.07,1.5v1.53a3.56,3.56,0,0,1-1.51,2.81A8.51,8.51,0,0,1,47,49.05,19.42,19.42,0,0,1,44.27,49.55Z"/><path class="cls-2" d="M44.27,49.55c-15.1.13-19.47-19.22-20.69-24.81C46.42,28,49.55,40.8,50.33,44.8a2.91,2.91,0,0,1-.71,2.54C48.8,48.2,47.24,49.15,44.27,49.55Z"/><path class="cls-3" d="M50.72,23.36a56.3,56.3,0,0,1,5.31,9,29.17,29.17,0,0,0,.38-3.86A36,36,0,0,0,55.5,19a36,36,0,0,0-1.39-4.46,35.89,35.89,0,0,0-1.93-4.06L47.53,2l-7.18,8.56a28.2,28.2,0,0,0-5.61,10.54,25.33,25.33,0,0,0-.87,6.31A23.46,23.46,0,0,0,37.2,39.66a26.91,26.91,0,0,0,3.58,4.72c.35.31.66.69,1,1l.51.46.25.24.3.27a3.24,3.24,0,0,0,1.35.7C43,41.73,43.54,33.87,50.72,23.36Z"/><path class="cls-4" d="M47.72,45.1a3.31,3.31,0,0,0-.67-1.37l-.27-.31-.23-.25-.44-.52c-.3-.33-.67-.64-1-1A27,27,0,0,0,40.51,38a23.51,23.51,0,0,0-12.19-3.64A25.86,25.86,0,0,0,22,35a28.21,28.21,0,0,0-10.68,5.34l-8.73,7L11,52.2a35,35,0,0,0,4,2,37.06,37.06,0,0,0,4.42,1.5,36.72,36.72,0,0,0,9.45,1.15,29.26,29.26,0,0,0,3.87-.29,56.09,56.09,0,0,1-8.85-5.53C34.56,44.14,42.43,43.76,47.72,45.1Z"/><path class="cls-1" d="M50.91,24.46A53.92,53.92,0,0,1,56,33.15a27.08,27.08,0,0,0,.37-3.73,34.83,34.83,0,0,0-.88-9.16A33.13,33.13,0,0,0,54.19,16,34.51,34.51,0,0,0,52.32,12l-4.5-8.23-6.94,8.27a27,27,0,0,0-5.42,10.2,24.59,24.59,0,0,0-.85,6.1,22.68,22.68,0,0,0,3.22,11.87,26,26,0,0,0,3.47,4.56c.34.3.63.67.94,1l.5.45.23.22.29.27a3.27,3.27,0,0,0,1.32.68C43.41,42.23,44,34.62,50.91,24.46Z"/><path class="cls-1" d="M48,45.49a3.1,3.1,0,0,0-.64-1.33,3.25,3.25,0,0,1-.26-.3l-.22-.24-.43-.5c-.29-.32-.65-.63-.94-1A26.49,26.49,0,0,0,41,38.57a22.73,22.73,0,0,0-11.79-3.52,24.78,24.78,0,0,0-6.12.7A27.17,27.17,0,0,0,12.8,40.91L4.36,47.65l8.11,4.7a35.32,35.32,0,0,0,3.88,2,35.27,35.27,0,0,0,4.28,1.44,34.78,34.78,0,0,0,9.14,1.12,29,29,0,0,0,3.74-.28A53.92,53.92,0,0,1,25,51.25C35.28,44.56,42.89,44.2,48,45.49Z"/></svg>